<?xml version="1.0" encoding="UTF-8"?>
<svg width="32" height="32" viewBox="0 0 32 32" fill="none" xmlns="http://www.w3.org/2000/svg">
  <!-- 渐变定义 -->
  <defs>
    <linearGradient id="gradient1" x1="0%" y1="0%" x2="100%" y2="100%">
      <stop offset="0%" style="stop-color:#FF6B6B;stop-opacity:1" />
      <stop offset="100%" style="stop-color:#FFB86C;stop-opacity:1" />
    </linearGradient>
    <linearGradient id="gradient2" x1="100%" y1="0%" x2="0%" y2="100%">
      <stop offset="0%" style="stop-color:#4ECDC4;stop-opacity:1" />
      <stop offset="100%" style="stop-color:#2BAE66;stop-opacity:1" />
    </linearGradient>
    <linearGradient id="gradient3" x1="0%" y1="0%" x2="100%" y2="0%">
      <stop offset="0%" style="stop-color:#FF6B6B;stop-opacity:0.3" />
      <stop offset="50%" style="stop-color:#4ECDC4;stop-opacity:0.3" />
      <stop offset="100%" style="stop-color:#FFB86C;stop-opacity:0.3" />
    </linearGradient>
  </defs>

  <!-- 背景形状 -->
  <rect width="32" height="32" rx="12" fill="#1A1A2E"/>
  
  <!-- 自由曲线装饰 -->
  <path d="M0 16C8 20 12 12 20 16C28 20 32 12 32 16" 
        stroke="url(#gradient3)" 
        stroke-width="12"
        stroke-linecap="round"
        fill="none"/>

  <!-- 艺术化的字母 a -->
  <g transform="translate(8, 20) scale(1.2)">
    <path d="M0 0C2 -8 8 -8 8 -4C8 0 0 4 0 4C0 4 8 4 8 8" 
          stroke="white" 
          stroke-width="2.5" 
          stroke-linecap="round"
          fill="none"/>
    <circle cx="4" cy="-6" r="1" fill="white" opacity="0.6"/>
  </g>

  <!-- 随性点缀 -->
  <circle cx="8" cy="8" r="1" fill="url(#gradient1)" opacity="0.6"/>
  <circle cx="24" cy="24" r="1" fill="url(#gradient2)" opacity="0.6"/>
  <path d="M20 8C22 6 24 10 26 8" stroke="url(#gradient2)" stroke-width="1" opacity="0.5"/>
</svg>
